<?xml version="1.0" encoding="UTF-8" standalone="no"?>
<!-- Created with Inkscape (http://www.inkscape.org/) -->

<svg
   xmlns:dc="http://purl.org/dc/elements/1.1/"
   xmlns:cc="http://creativecommons.org/ns#"
   xmlns:rdf="http://www.w3.org/1999/02/22-rdf-syntax-ns#"
   xmlns:svg="http://www.w3.org/2000/svg"
   xmlns="http://www.w3.org/2000/svg"
   xmlns:sodipodi="http://sodipodi.sourceforge.net/DTD/sodipodi-0.dtd"
   xmlns:inkscape="http://www.inkscape.org/namespaces/inkscape"
   width="1200"
   height="619"
   viewBox="0 0 317.49999 163.77712"
   version="1.1"
   id="svg8"
   inkscape:version="0.92.3 (2405546, 2018-03-11)"
   sodipodi:docname="opengraph.svg"
   inkscape:export-filename="C:\Users\Igor\repos\nightwatch-api\site\images\opengraph.png"
   inkscape:export-xdpi="96"
   inkscape:export-ydpi="96">
  <defs
     id="defs2" />
  <sodipodi:namedview
     id="base"
     pagecolor="#ffffff"
     bordercolor="#666666"
     borderopacity="1.0"
     inkscape:pageopacity="0.0"
     inkscape:pageshadow="2"
     inkscape:zoom="0.7"
     inkscape:cx="582.23214"
     inkscape:cy="310.0973"
     inkscape:document-units="mm"
     inkscape:current-layer="layer1"
     showgrid="false"
     units="px"
     inkscape:window-width="1366"
     inkscape:window-height="705"
     inkscape:window-x="-8"
     inkscape:window-y="-8"
     inkscape:window-maximized="1" />
  <metadata
     id="metadata5">
    <rdf:RDF>
      <cc:Work
         rdf:about="">
        <dc:format>image/svg+xml</dc:format>
        <dc:type
           rdf:resource="http://purl.org/dc/dcmitype/StillImage" />
        <dc:title></dc:title>
      </cc:Work>
    </rdf:RDF>
  </metadata>
  <g
     inkscape:label="Layer 1"
     inkscape:groupmode="layer"
     id="layer1"
     transform="translate(0,-133.22285)">
    <rect
       id="rect10"
       width="317.5"
       height="164.04167"
       x="0"
       y="132.95827"
       style="fill:#7ac35f;fill-opacity:1;stroke-width:0.30175248" />
    <g
       id="g917"
       transform="matrix(0.91734338,0,0,0.91734338,135.13787,142.8265)">
      <g
         id="body">
        <path
           sodipodi:nodetypes="cccccccccccccccccccccccccc"
           inkscape:connector-curvature="0"
           style="fill:#512d14"
           id="path3787"
           d="m 23.40878,39.659638 c 0.961757,-1.919457 2.218391,-4.03086 4.604635,-4.190815 -0.444586,0.808915 -0.993513,1.553847 -1.583269,2.262218 -0.01361,0.918597 -0.01815,1.837194 -0.0045,2.755792 1.365512,-0.804344 2.635756,-2.6781 4.405024,-2.01543 -0.340244,1.462443 -1.864536,2.413031 -1.887219,4.03543 1.778341,0.479864 3.475024,1.206515 5.108195,2.056561 2.136731,-0.685521 4.187268,-1.626969 6.346683,-2.221086 0.639658,-0.246788 1.510683,-0.07769 1.782878,0.616968 0.05444,2.915747 -0.934537,5.749231 -0.920927,8.660407 0.580683,1.503575 1.515219,2.838055 2.123122,4.332489 1.034341,2.193665 1.465317,4.606697 2.372634,6.850633 1.057024,7.325928 0.576146,15.031177 -2.59039,21.804118 -1.233952,2.929457 -3.266342,5.38362 -5.071903,7.961177 -1.27478,0.662669 -2.381707,1.599547 -3.511317,2.481583 -8.81108,3.65881 -9.004102,3.648065 -17.697219,0.0041 C 15.26561,93.838597 13.795756,92.444706 12.185268,91.22448 10.23,88.144208 8.1477073,85.082217 7.0725366,81.549502 5.1263415,76.161312 5.1172683,70.343529 5.4121463,64.690271 6.1470732,62.514887 6.4419512,60.206968 7.254,58.054434 7.7666341,56.486878 8.6149756,55.051855 9.1366829,53.488869 8.9416098,49.745928 7.9254146,46.071539 7.9662439,42.310317 c 3.1574631,-0.187376 5.8431221,1.855475 8.8508781,2.463303 2.095902,-0.840905 4.101073,-1.924027 6.324,-2.413032 -0.95722,-1.261357 -3.261805,-2.271357 -2.408927,-4.149683 0.898244,0.466154 1.796488,0.941448 2.676585,1.448733 z" />
        <path
           id="path3789"
           d="m 14.712146,50.545701 c 4.586488,-1.553846 9.522293,1.695521 10.960391,6.119412 1.161365,-2.490724 2.921561,-4.885475 5.561853,-5.886335 3.248195,-1.389321 7.190488,-0.292488 9.481464,2.34905 4.023951,4.36905 3.729073,12.019457 -0.75761,15.958914 -1.379122,1.297919 -3.207366,1.924027 -5.031073,2.266787 3.52039,2.577557 5.779609,6.964887 5.257902,11.388779 C 39.64522,88.747466 34.341951,93.518688 28.539659,94.236199 22.283707,95.26905 15.342732,91.690634 13.224146,85.52552 11.309707,80.425249 13.509951,74.452081 17.851463,71.37181 14.140537,71.490634 10.58839,69.223846 9.0686341,65.823665 6.2831707,60.385204 8.6694146,52.469729 14.712146,50.545701 Z"
           inkscape:connector-curvature="0"
           style="fill:#ffffff" />
        <path
           d="m 22.986878,64.895928 c 1.397268,-1.128824 3.633805,-1.247648 5.117268,-0.233077 0.762147,0.520995 1.492537,1.087692 2.27283,1.590407 -0.02722,0.589547 -0.05444,1.183665 -0.07712,1.773213 -1.238488,1.201945 -2.381708,2.504434 -3.683708,3.637828 -0.503561,0.516425 -1.44717,0.415882 -1.909902,-0.114254 -1.106927,-1.03285 -2.177561,-2.102262 -3.207366,-3.208235 -0.594293,-0.502715 -0.408293,-1.3619 -0.254049,-2.02 0.567073,-0.484434 1.138683,-0.973439 1.742049,-1.425882 z"
           id="beak"
           inkscape:connector-curvature="0"
           style="fill:#ff7f14" />
        <path
           d="M 2.2138537,77.706018 C 1.4154146,73.158733 2.658439,68.364661 5.4121463,64.690271 5.1172683,70.343529 5.1263415,76.161312 7.0725366,81.549502 8.1477073,85.082217 10.23,88.144208 12.185268,91.22448 7.1678049,88.432127 3.1756098,83.478099 2.2138537,77.706018 Z"
           id="left-wing"
           inkscape:connector-curvature="0"
           style="fill:#7a441e" />
        <path
           d="m 45.756,62.802805 c 4.395951,4.291358 6.174293,11.09629 4.332439,16.996335 -1.755659,5.849774 -6.541756,10.355928 -11.994732,12.76896 1.805561,-2.577557 3.837951,-5.03172 5.071903,-7.961177 3.166536,-6.772941 3.647414,-14.47819 2.59039,-21.804118 z"
           id="right-wing"
           inkscape:connector-curvature="0"
           style="fill:#7a441e" />
      </g>
      <g
         id="eyes">
        <path
           id="path3795"
           d="m 27.623268,57.144977 c 0.843805,-2.435882 3.506781,-4.364479 6.097171,-3.423031 3.974049,1.512715 4.904049,7.106561 2.735561,10.465611 -1.152293,2.097692 -3.901463,3.071131 -6.079024,2.065701 -0.780293,-0.502715 -1.510683,-1.069412 -2.27283,-1.590407 C 27.346537,62.254389 26.470976,59.59 27.623268,57.144977 Z"
           inkscape:connector-curvature="0"
           style="fill:#afdfec" />
        <path
           id="path3797"
           d="m 16.495024,54.608552 c 2.449756,-1.238507 5.425756,0.242217 6.478244,2.650679 1.292927,2.390181 0.671415,5.159683 0.01361,7.636697 -0.603366,0.452443 -1.174976,0.941448 -1.742049,1.425882 -1.596878,1.403032 -4.160049,1.275068 -5.716097,-0.118824 C 12.07639,63.2781 12.47561,56.834208 16.495024,54.608552 Z"
           inkscape:connector-curvature="0"
           style="fill:#afdfec" />
        <path
           id="path3799"
           d="m 17.488537,56.962172 c 2.531414,-0.964299 4.522975,1.983439 4.278,4.277647 0.05444,2.115973 -1.71483,4.675249 -4.051171,3.998869 -3.307171,-1.252217 -3.388829,-6.791222 -0.226829,-8.276516 z"
           inkscape:connector-curvature="0"
           style="fill:#000000" />
        <path
           id="path3801"
           d="m 31.479366,56.916471 c 2.327268,-0.790634 4.178195,1.791493 4.146439,3.907466 0.186,2.138823 -1.383659,4.940316 -3.824342,4.469592 -3.574829,-1.005429 -3.70639,-7.015158 -0.322097,-8.377058 z"
           inkscape:connector-curvature="0"
           style="fill:#000000" />
        <path
           id="path3803"
           d="m 18.264293,57.739095 c 1.356439,-1.229366 3.152927,1.165385 1.601414,2.115973 -1.315609,0.959728 -2.830829,-1.115113 -1.601414,-2.115973 z"
           inkscape:connector-curvature="0"
           style="fill:#ffffff" />
        <path
           id="path3805"
           d="m 30.948585,57.647692 c 0.748537,-0.530135 1.946196,-0.04113 2.023317,0.895747 0.249513,1.083122 -1.129609,1.969728 -2.009707,1.311629 -0.812049,-0.429593 -0.802976,-1.768643 -0.01361,-2.207376 z"
           inkscape:connector-curvature="0"
           style="fill:#ffffff" />
      </g>
      <g
         id="legs">
        <path
           style="fill:#ff7f14"
           d="m 17.288927,95.168507 c 2.277366,-0.566697 5.058293,0.132534 6.237805,2.321629 0.689561,1.224796 -0.580683,2.499864 -1.646781,2.943164 -0.630585,-0.37018 -1.383658,-1.051128 -2.064146,-0.35647 -0.621512,0.58498 -1.215805,-0.0183 -1.760195,-0.393029 -0.898244,0.274208 -2.027854,1.096829 -2.799073,0.118823 -0.97083,-0.580407 -0.689561,-1.773212 -0.712244,-2.723801 0.961756,-0.562126 1.805561,-1.307058 2.744634,-1.910316 z"
           id="left-leg"
           inkscape:connector-curvature="0" />
        <path
           style="fill:#ff7f14"
           d="m 27.72761,97.087964 c 0.970829,-0.557557 1.864536,-1.238507 2.676585,-2.02 2.63122,-0.434163 5.734244,0.425022 6.705073,3.194525 -0.430975,0.635249 -0.821122,1.302488 -1.306536,1.896601 -0.825659,0.36562 -1.646781,-0.552981 -2.495122,-0.265063 -0.789366,0.347333 -1.574195,0.0914 -2.359025,-0.07769 -0.839268,0.191943 -1.86,0.909453 -2.522341,-0.02742 -0.925464,-0.598688 -0.639659,-1.768642 -0.698634,-2.70095 z"
           id="right-leg"
           inkscape:connector-curvature="0" />
      </g>
      <g
         style="fill:#afdfec;fill-opacity:1"
         id="remote-control-waves">
        <path
           style="fill:#afdfec;fill-opacity:1;stroke-width:0.04857071"
           d="m 47.274005,34.279564 c 0.694561,1.102555 0.801417,2.914242 0.801417,2.914242 0.286567,3.239667 3.322237,7.319606 7.577031,7.543032 0,0 1.782545,0.169997 2.928814,0.801416 2.661674,1.457122 -1.301695,6.163623 -9.913282,-1.393979 -7.387605,-8.951582 -2.744245,-12.001822 -1.39398,-9.864711 z"
           id="path4678"
           inkscape:connector-curvature="0" />
        <path
           style="fill:#afdfec;fill-opacity:1;stroke-width:0.04857071"
           d="m 51.601656,31.705316 c 0.233139,-0.233139 1.185125,-0.407994 1.665975,0.07286 0.660562,0.655705 0.495421,2.078827 0.495421,2.078827 0.05343,0.995699 0.699418,2.28768 1.826259,3.404806 1.12684,1.117127 2.418821,1.763117 3.419378,1.816545 0,0 1.432836,-0.16514 2.08854,0.490564 0.48085,0.475993 0.305996,1.427979 0.07286,1.661118 -0.233139,0.23314 -2.583961,1.991399 -7.178751,-2.379964 -4.69193,-4.871643 -2.622818,-6.91647 -2.389678,-7.144752 z"
           id="path4676"
           inkscape:connector-curvature="0" />
      </g>
      <g
         id="remote-control">
        <path
           style="fill:#512d14;fill-opacity:1;stroke-width:0.04857071"
           d="m 78.990234,0.83789062 c -0.384923,0 -0.768647,0.14607585 -1.0625,0.43749998 L 53.460938,25.619141 c -0.587706,0.582849 -0.587706,1.529482 0,2.117187 l 11.697265,11.642578 c 0.587705,0.582849 1.539247,0.582849 2.126953,0 L 91.75,15.035156 c 0.587706,-0.587705 0.587706,-1.534339 0,-2.117187 L 80.054688,1.2753906 C 79.760835,0.9839665 79.375157,0.83789065 78.990234,0.83789062 Z m -0.01953,4.88476558 c 0.791095,-0.0085 1.578362,0.2843905 2.175781,0.8769532 1.19484,1.1899824 1.17225,3.1362929 -0.04687,4.3457026 -1.219125,1.214269 -3.178206,1.233955 -4.373047,0.04883 -1.194839,-1.1851254 -1.170296,-3.1314358 0.04883,-4.3457035 0.609562,-0.607134 1.404217,-0.9172813 2.195312,-0.9257813 z m 5.224609,5.2011718 c 0.793524,-0.0061 1.585223,0.289299 2.1875,0.886719 1.199698,1.19484 1.185922,3.152919 -0.0332,4.367187 -1.219124,1.214268 -3.182164,1.228043 -4.386718,0.0332 -1.199696,-1.194841 -1.183969,-3.150967 0.03516,-4.365235 0.609562,-0.607134 1.403742,-0.915803 2.197265,-0.921875 z m -10.566406,0.125 c 0.787453,-0.0061 1.572503,0.286344 2.169922,0.878906 1.194839,1.185125 1.176207,3.127479 -0.0332,4.332032 -1.214267,1.204554 -3.16158,1.218328 -4.351563,0.0332 -1.194839,-1.185125 -1.176207,-3.12748 0.0332,-4.332031 0.604705,-0.602281 1.394188,-0.906038 2.18164,-0.91211 z m 5.21875,5.197266 c 0.790489,-0.0024 1.581317,0.295158 2.183594,0.892578 1.204554,1.19484 1.193785,3.143102 -0.01563,4.347656 -1.214268,1.204552 -3.166541,1.208511 -4.371094,0.01367 -1.199698,-1.194839 -1.193786,-3.141149 0.01563,-4.345703 0.607134,-0.602276 1.397012,-0.905775 2.1875,-0.908203 z m -12.482422,3.552734 c 1.747332,-0.01518 3.489424,0.632952 4.810547,1.949219 2.642247,2.627675 2.608787,6.931176 -0.08203,9.607422 -2.690817,2.676246 -7.014003,2.714564 -9.65625,0.08203 -2.642247,-2.627675 -2.60393,-6.931176 0.08203,-9.607422 1.345409,-1.338123 3.098372,-2.016071 4.845703,-2.03125 z"
           id="path4674"
           inkscape:connector-curvature="0" />
        <path
           style="fill:#ff7f14;fill-opacity:1;stroke-width:0.04857071"
           d="m 68.883114,24.031144 c 1.466836,1.461978 1.466836,3.832229 0,5.294207 -1.466835,1.461979 -3.851657,1.461979 -5.318493,0 -1.466835,-1.461978 -1.466835,-3.832229 0,-5.294207 1.471693,-1.461978 3.851658,-1.461978 5.318493,0 z"
           id="path4"
           inkscape:connector-curvature="0" />
      </g>
    </g>
    <text
       xml:space="preserve"
       style="font-style:normal;font-weight:normal;font-size:10.58333302px;line-height:1.25;font-family:sans-serif;letter-spacing:0px;word-spacing:0px;fill:#000000;fill-opacity:1;stroke:none;stroke-width:0.26458332"
       x="75.661186"
       y="264.11594"
       id="text4627"><tspan
         sodipodi:role="line"
         id="tspan4625"
         x="75.661186"
         y="264.11594"
         style="font-size:21.8722229px;fill:#ffffff;stroke-width:0.26458332">Nightwatch API</tspan></text>
  </g>
</svg>
